<svg xmlns="http://www.w3.org/2000/svg" width="224" height="68" fill="none"><path fill="#03C2E0" d="M15.118 0h33.868c8.374 0 15.118 6.79 15.118 15.197v34.057c0 8.42-6.744 15.197-15.118 15.197H15.118C6.758 64.451 0 57.661 0 49.254V15.21C0 6.79 6.744 0 15.118 0Z"/><path fill="#0B111C" d="M30.856 33.753c-.726 4.7-5.16 8.075-10.614 8.075-6.597 0-11.393-4.78-11.393-11.397 0-.817.08-5.035 3.278-8.236 1.45-1.447 2.956-2.103 3.654-2.41 1.626-.697 3.279-.978 13.234-.978h.564c1.13 1.406 2.258 2.812 3.386 4.205a217.25 217.25 0 0 0-12.602.321c-.887.054-2.217.148-3.534 1.018-1.827 1.205-2.942 3.375-2.942 6.067 0 4.151 2.7 7.084 6.476 7.084 2.7 0 5.132-1.848 5.79-4.366l4.703.617Z"/><path fill="#0B111C" d="M37.103 32.293c.175 2.96 2.915 5.236 6.301 5.236 4.017 0 6.906-2.986 6.906-7.084 0-2.491-1.021-4.554-2.7-5.8-1.223-.91-2.486-1.11-4.045-1.285-2.512-.281-6.1-.522-10.6-.321a1145.567 1145.567 0 0 0-3.386-4.206 331.05 331.05 0 0 1 6.342 0c3.68.027 5.535.094 6.476.134 1.598.067 2.391.107 2.673.134 1.062.148 5.012.71 7.793 4.085 2.27 2.759 2.485 5.973 2.485 7.259 0 6.602-4.944 11.397-11.823 11.397-7.201 0-11.97-5.384-11.272-12.83h11.46v3.294l-6.61-.013Zm10.023-13.768a15.813 15.813 0 0 0-1.075-.335c-.242-.067-.43-.12-.672-.16-.671-.134-1.209-.148-1.88-.161-.202 0-.47-.013-.807 0v-9.04h4.434v9.696Z"/><path fill="#0B111C" stroke="#0B111C" stroke-width="2.537" d="M33.18 47.902c.068.334.417 1.982 2.03 2.946 0 0 1.195.643 2.7.656.174 0 2.472-.08 3.977-1.781 1.142-1.3 1.222-2.84 1.25-3.482.013-.174 0-.188-.028-1.835-.013-.843-.027-1.527-.027-1.982.565.054 1.25.067 2.042 0 .619-.053 1.17-.16 1.6-.268v4.072c-.014.67-.081 2.691-1.371 4.647-.954 1.46-2.23 2.29-2.942 2.678a9.585 9.585 0 0 1-4.864 1.179 9.49 9.49 0 0 1-2.808-.59 8.743 8.743 0 0 1-2.432-1.42 8.791 8.791 0 0 1-2.042-2.41 7.794 7.794 0 0 1-.927-2.464c1.276.013 2.553.04 3.842.054Z"/><path fill="#0B111C" d="M35.196 43.884H27.82c-1.062 0-1.922.99-1.922 2.21v.415c0 1.218.86 2.21 1.922 2.21h7.376c1.061 0 1.921-.992 1.921-2.21v-.416c-.013-1.218-.873-2.21-1.921-2.21Z"/><path fill="#fff" d="M91.07 44.105c-.334 3.498-3.573 6.051-7.682 6.051-4.738 0-8.164-3.39-8.164-8.077 0-4.674 3.426-8.078 8.137-8.078 4.07 0 7.281 2.566 7.67 6.133l-4.176.445a3.436 3.436 0 0 0-3.347-2.701c-2.235 0-3.76 1.702-3.76 4.187 0 2.486 1.539 4.188 3.734 4.188 1.606 0 3.011-1.122 3.36-2.661l4.229.513Zm1.86 5.525V34.54h4.538v5.525h4.992V34.54h4.538v15.088h-4.538v-6.01h-4.992v6.01H92.93Z"/><path fill="#fff" fill-rule="evenodd" d="M119.432 49.63h4.738l-4.685-15.089h-6.598l-4.671 15.088h4.738l.642-2.27h5.193l.643 2.27Zm-1.513-5.485h-3.439l1.713-5.754 1.726 5.754Z" clip-rule="evenodd"/><path fill="#fff" d="M125.415 49.63V34.54h4.537v11.211h5.474v3.877h-10.011Zm11.765 0V34.54h4.537v11.211h5.474v3.877H137.18Zm22.632-3.58v3.58h-10.881V34.54h10.667v3.566h-6.304v2.296h5.474v3.08h-5.474v2.567h6.518Zm11.685-1.918V34.54h4.216v15.088h-4.725l-5.113-9.563v9.563h-4.216V34.541h4.725l5.113 9.59Zm14.321-.554v-2.661h8.138c.549 5.349-2.824 9.225-7.977 9.225-4.859 0-8.392-3.39-8.392-8.077 0-4.674 3.533-8.078 8.392-8.078 3.654 0 6.572 2.107 7.268 5.052l-4.176.784c-.362-1.135-1.633-1.959-3.106-1.959-2.235 0-3.841 1.742-3.841 4.187 0 2.418 1.673 4.188 4.029 4.188 1.833 0 3.359-1.162 3.493-2.702h-3.828v.04Zm20.946 2.472v3.58h-10.881V34.54h10.667v3.566h-6.304v2.296h5.474v3.08h-5.474v2.567h6.518Zm1.312-1.392h3.922c.027 1.283 1.204 2.229 2.837 2.229 1.339 0 2.195-.635 2.195-1.472 0-2.661-8.874-.04-8.874-6.214 0-3.12 2.651-5.187 6.412-5.187s6.478 2.215 6.491 5.268h-3.774c0-1.161-1.111-1.999-2.584-1.999-1.271 0-2.154.567-2.154 1.364 0 2.526 8.873-.04 8.873 6.133 0 3.188-2.77 5.376-6.719 5.376-3.841 0-6.625-2.323-6.625-5.498Z"/><path fill="#fff" fill-rule="evenodd" d="M110.617 23.965a.602.602 0 0 1-.24.363.934.934 0 0 1-.361.15c-.24.091-.511.152-.721.273-.27.12-.511.18-.721.271-.27.121-.54.182-.781.273-.18.09-.36.18-.541.302-.15.12-.27.272-.39.453s-.15.423-.15.725c0 .574.15.997.42 1.33.271.272.781.423 1.532.423s1.262-.151 1.532-.423c.271-.303.421-.726.421-1.27v-2.87Zm-1.983-6.134c1.352 0 2.313.272 2.974.786.631.543.931 1.208.931 1.994v6.799c0 .272-.03.574-.15.906-.12.363-.3.635-.571.907-.3.272-.69.513-1.201.695-.511.18-1.172.272-1.983.272-.811 0-1.472-.091-1.982-.272a3.517 3.517 0 0 1-1.202-.695c-.3-.272-.511-.575-.571-.907-.09-.362-.15-.634-.15-.906v-1.118c0-.575.15-1.118.421-1.602.3-.453.721-.816 1.261-.997.271-.12.571-.181.932-.302.36-.121.691-.242 1.051-.363.36-.12.631-.241.841-.302.24-.09.391-.151.451-.151a.88.88 0 0 1 .24-.12c.09-.031.18-.152.3-.243.091-.12.151-.241.241-.362.09-.151.09-.302.09-.514v-.423c0-.151-.03-.302-.09-.453-.03-.151-.15-.302-.301-.423-.15-.151-.36-.242-.631-.363-.24-.09-.57-.12-.961-.12-.781 0-1.261.15-1.532.453-.24.271-.39.634-.39.997 0 .09-.09.15-.151.15h-1.652c-.09 0-.15-.09-.15-.15v-.393c0-.393.09-.725.24-1.088.151-.363.391-.634.691-.906a3.125 3.125 0 0 1 1.232-.575c.511-.09 1.081-.211 1.772-.211Zm-26.555 6.134a.602.602 0 0 1-.24.363c-.12.09-.24.12-.36.15-.24.091-.511.152-.721.273-.27.12-.511.18-.721.271-.27.121-.541.182-.781.273-.18.09-.36.18-.541.302-.15.12-.27.272-.39.453s-.15.423-.15.725c0 .574.15.997.42 1.33.27.272.78.423 1.532.423.75 0 1.261-.151 1.592-.423.27-.303.42-.726.42-1.27l-.06-2.87Zm-1.922-6.134c1.352 0 2.313.272 2.974.786.63.543.931 1.208.931 1.994v6.799c0 .272-.03.574-.15.906-.09.363-.3.635-.571.907-.3.272-.69.513-1.201.695-.511.18-1.172.272-1.983.272-.811 0-1.472-.091-1.983-.272a3.512 3.512 0 0 1-1.201-.695c-.3-.272-.511-.575-.571-.907a2.713 2.713 0 0 1-.15-.906v-1.118c0-.575.15-1.118.42-1.602.3-.453.721-.816 1.262-.997.27-.12.57-.181.931-.302.36-.121.691-.242 1.052-.363.36-.12.63-.241.84-.302.241-.09.391-.151.451-.151.09 0 .15-.09.24-.12.12-.031.18-.152.3-.243.121-.12.151-.241.241-.362.09-.151.12-.302.12-.514v-.423a.857.857 0 0 0-.12-.453c-.03-.151-.15-.302-.3-.423-.15-.151-.36-.242-.631-.363-.24-.09-.57-.12-.961-.12-.781 0-1.262.15-1.532.453-.24.271-.39.634-.39.997 0 .09-.09.15-.151.15h-1.652c-.09 0-.15-.09-.15-.15v-.393c0-.393.09-.725.24-1.088.15-.363.39-.634.69-.906a3.129 3.129 0 0 1 1.233-.575c.45-.09 1.08-.211 1.772-.211Zm22.56 0h1.111c.12 0 .15.12.15.181l-.39 1.45c0 .091-.09.122-.151.122h-.751c-.42 0-.72.03-.991.15-.24.121-.45.242-.571.393-.15.152-.24.303-.27.454-.03.15-.03.302-.03.453v9.035c0 .09-.09.15-.15.15h-1.652c-.09 0-.15-.09-.15-.15V20.64c0-.151.03-.423.12-.725.03-.302.24-.635.51-.937.27-.302.661-.574 1.172-.816.39-.211 1.141-.332 2.043-.332Zm-5.588 9.186v.423c0 .181-.03.423-.12.725-.03.302-.24.635-.51.937-.271.302-.661.574-1.172.816-.54.241-1.232.362-2.163.362-.931 0-1.652-.12-2.163-.362-.54-.242-.931-.514-1.171-.816a2.419 2.419 0 0 1-.511-.937c-.03-.302-.12-.544-.12-.725v-9.397c0-.091.09-.152.15-.152H91c.09 0 .15.091.15.152v8.853c0 .302.03.514.09.665.03.15.12.362.24.453.12.151.301.272.572.393.24.12.57.15 1.05.15.421 0 .812-.03 1.082-.15.27-.121.45-.242.571-.363.15-.15.24-.302.27-.453.03-.151.12-.302.12-.695v-8.823c0-.091.09-.151.15-.151h1.653c.09 0 .15.09.15.15l.03 8.945ZM85.834 13.359h1.653c.09 0 .15.09.15.151v16.589c0 .09-.09.151-.15.151h-1.653c-.09 0-.15-.09-.15-.151V13.51c0-.06.06-.151.15-.151Z" clip-rule="evenodd"/></svg>