<svg xmlns="http://www.w3.org/2000/svg" width="633" height="392" fill="none"><g filter="url(#a)"><circle cx="182.58" cy="182.58" r="182.58" fill="#03C2E0" transform="matrix(.86603 .5 -.86603 .5 316.238 0)"/><path fill="#00080F" d="M303.188 184.625c-22.575 9.532-55.139 6.933-77.939-6.231-27.574-15.92-27.746-38.971-.241-54.851 3.396-1.961 21.271-11.892 47.944-11.858 12.079.03 21.097 2.086 25.298 3.033 9.69 2.251 17.767 5.564 59.381 29.59l2.358 1.362c-1.128 6.099-2.257 12.198-3.33 18.264a1262.708 1262.708 0 0 0-54.014-29.641c-3.929-2.012-9.878-4.997-19.001-6.085-12.649-1.516-26.33 1-37.521 7.462-17.26 9.965-18.166 23.522-2.385 32.633 11.288 6.517 29.136 7.949 42.356 3.495l17.094 12.827Z"/><path fill="#00080F" d="M335.368 196.197c-11.575 7.526-9.583 19.605 4.569 27.776 16.791 9.694 41.282 9.497 58.319-.34 10.356-5.979 14.662-13.393 12.821-20.436-1.325-5.136-5.769-8.666-11.559-12.845-9.333-6.738-23.325-15.974-42.974-26.354 1.129-6.099 2.258-12.197 3.331-18.264 10.613 5.999 19.543 11.219 26.507 15.304 15.276 8.948 22.748 13.583 26.512 15.949 6.405 4.019 9.551 6.029 10.619 6.774 3.824 2.915 17.996 13.798 15.591 28.61-1.979 12.102-14.443 20.335-19.788 23.421-27.449 15.848-68.049 15.424-96.802-1.176-30.101-17.379-27.655-41.812 6.222-57.999l47.903 27.657-13.696 7.908-27.575-15.985Zm99.145-8.859a53.885 53.885 0 0 0-3.101-3.398c-.732-.744-1.296-1.327-2.14-2.007-2.251-1.942-4.442-3.271-7.194-4.925-.842-.486-1.91-1.167-3.369-1.945l37.582-21.698 18.533 10.699-40.311 23.274Z"/><path fill="#00080F" stroke="#0B111C" stroke-width="2.661" d="M254.076 224.188c-1.111.966-6.499 5.763-3.769 11.968 0 0 2.326 4.429 8.56 8.092.73.422 10.667 5.773 24.028 5.322 10.174-.362 16.914-3.864 19.699-5.342.78-.386.78-.45 7.516-4.469 3.451-2.058 6.235-3.729 8.128-4.822 2.136 1.49 4.944 3.176 8.536 4.928a72.916 72.916 0 0 0 7.796 3.215l-9.02 5.208-7.906 4.565c-2.84 1.575-11.528 6.266-25.048 7.847-10.056 1.202-18.843.115-23.435-.672-14.724-2.457-23.544-7.871-25.229-8.908-1.742-1.134-5.957-3.954-9.287-8.191-.96-1.197-3.446-4.625-4.263-9.276-.291-1.518-.825-5.684 1.486-10.715 1.65-3.611 4.202-6.317 6.369-8.152 5.28 3.113 10.504 6.257 15.839 9.402Z"/><path fill="#00080F" d="m279.212 219.414-1.797-1.037-27.294-15.758-.73-.422-1.011-.583c-4.436-2.562-12.151-2.258-17.217.667l-1.726.997c-5.067 2.925-5.593 7.379-1.156 9.94l3.987 2.302.618.357 19.262 11.121 4.774 2.756 2.19 1.265c4.437 2.561 12.151 2.257 17.218-.668l1.726-.996c5.01-2.958 5.536-7.412 1.156-9.941Z"/></g><defs><filter id="a" width="561.499" height="372.48" x="35.489" y="18.957" color-interpolation-filters="sRGB" filterUnits="userSpaceOnUse"><feFlood flood-opacity="0" result="BackgroundImageFix"/><feColorMatrix in="SourceAlpha" result="hardAlpha" values="0 0 0 0 0 0 0 0 0 0 0 0 0 0 0 0 0 0 127 0"/><feOffset dy="22.616"/><feGaussianBlur stdDeviation="28.568"/><feComposite in2="hardAlpha" operator="out"/><feColorMatrix values="0 0 0 0 0.0242535 0 0 0 0 0.460626 0 0 0 0 0.529167 0 0 0 1 0"/><feBlend in2="BackgroundImageFix" result="effect1_dropShadow_950_4850"/><feBlend in="SourceGraphic" in2="effect1_dropShadow_950_4850" result="shape"/></filter></defs></svg>